<?xml version="1.0" encoding="UTF-8"?>
<svg width="107px" height="89px" viewBox="0 0 107 89" version="1.1" xmlns="http://www.w3.org/2000/svg" xmlns:xlink="http://www.w3.org/1999/xlink">
    <!-- Generator: Sketch 58 (84663) - https://sketch.com -->
    <title>custom_coding_1_</title>
    <desc>Created with Sketch.</desc>
    <g id="Page-1" stroke="none" stroke-width="1" fill="none" fill-rule="evenodd">
        <g id="Icons" transform="translate(-560.000000, -914.000000)" fill="#404040" fill-rule="nonzero">
            <g id="custom_coding_1_" transform="translate(558.000000, 911.000000)">
                <g id="Group" transform="translate(22.000000, 36.000000)">
                    <path d="M1.056,22.919 L19.14,32.164 L19.14,29.24 C19.14,28.939 19.008,28.681 19.008,28.552 C18.832,28.38 18.524,28.122 18.216,27.95 L7.876,22.876 C7.48,22.704 7.084,22.575 6.82,22.403 C6.512,22.274 6.116,22.102 5.676,22.102 C6.072,21.973 6.512,21.973 6.82,21.801 C7.128,21.672 7.48,21.586 7.876,21.414 L18.216,16.168 C18.524,16.039 18.788,15.867 19.008,15.609 C19.008,15.48 19.14,15.308 19.14,15.007 L19.14,12.169 L1.056,21.285 L1.056,22.919 Z" id="Path"></path>
                    <path d="M39.336,4.386 C38.852,4.558 38.544,4.945 38.456,5.418 L24.376,39.517 L26.136,39.517 C26.62,39.517 27.016,39.388 27.5,39.13 C27.896,38.829 28.204,38.356 28.512,37.969 L42.328,3.956 L40.656,3.956 C40.04,3.999 39.6,4.085 39.336,4.386 Z" id="Path"></path>
                    <path d="M47.564,12.255 L47.564,15.093 C47.564,15.394 47.564,15.566 47.74,15.695 C47.872,15.996 48.048,16.168 48.444,16.254 L58.872,21.5 C59.092,21.672 59.4,21.801 59.884,21.887 C60.192,22.059 60.5,22.059 60.896,22.188 C60.5,22.188 60.192,22.36 59.884,22.489 C59.4,22.661 59.136,22.79 58.872,22.962 L48.444,28.036 C48.048,28.208 47.872,28.423 47.74,28.638 C47.564,28.767 47.564,29.025 47.564,29.326 L47.564,32.25 L65.516,23.005 L65.516,21.414 L47.564,12.255 Z" id="Path"></path>
                </g>
                <g id="Group">
                    <path d="M15.4,11.9161905 C13.64,11.9161905 12.144,13.5809524 12.144,15.3771429 C12.144,17.1295238 13.64,18.6190476 15.4,18.6190476 C17.336,18.6190476 18.788,17.1295238 18.788,15.3771429 C18.788,13.5809524 17.336,11.9161905 15.4,11.9161905 Z" id="Path"></path>
                    <path d="M27.104,11.9161905 C25.3,11.9161905 23.848,13.5809524 23.848,15.3771429 C23.848,17.1295238 25.344,18.6190476 27.104,18.6190476 C28.82,18.6190476 30.316,17.1295238 30.316,15.3771429 C30.316,13.5809524 28.864,11.9161905 27.104,11.9161905 Z" id="Path"></path>
                    <path d="M38.764,11.9161905 C36.872,11.9161905 35.376,13.5809524 35.376,15.3771429 C35.376,17.1295238 36.872,18.6190476 38.764,18.6190476 C40.568,18.6190476 42.02,17.1295238 42.02,15.3771429 C42.064,13.5809524 40.568,11.9161905 38.764,11.9161905 Z" id="Path"></path>
                    <path d="M100.276,3.72380952 L10.516,3.72380952 C5.94,3.72380952 2.2,7.40380952 2.2,11.96 L2.2,23.6133333 L2.2,26.8990476 L2.2,83.1942857 C2.2,87.7504762 5.94,91.4742857 10.516,91.4742857 L100.276,91.4742857 C104.852,91.4742857 108.548,87.7504762 108.548,83.1942857 L108.548,26.8990476 L108.548,23.6133333 L108.548,11.96 C108.548,7.40380952 104.852,3.72380952 100.276,3.72380952 Z M105.248,83.1504762 C105.248,85.9980952 103.048,88.1885714 100.232,88.1885714 L10.472,88.1885714 C7.612,88.1885714 5.412,85.9980952 5.412,83.1504762 L5.412,26.8552381 L105.204,26.8552381 L105.204,83.1504762 L105.248,83.1504762 Z M5.5,23.6133333 L5.5,11.96 C5.5,9.3752381 7.7,7.09714286 10.56,7.09714286 L100.32,7.09714286 C103.092,7.09714286 105.336,9.33142857 105.336,11.96 L105.336,23.6133333 L5.5,23.6133333 Z" id="Shape"></path>
                </g>
            </g>
        </g>
    </g>
</svg>