<?xml version="1.0" encoding="UTF-8"?>
<svg width="106px" height="108px" viewBox="0 0 106 108" version="1.1" xmlns="http://www.w3.org/2000/svg" xmlns:xlink="http://www.w3.org/1999/xlink">
    <!-- Generator: Sketch 58 (84663) - https://sketch.com -->
    <title>marketing_1_</title>
    <desc>Created with Sketch.</desc>
    <g id="Page-1" stroke="none" stroke-width="1" fill="none" fill-rule="evenodd">
        <g id="Icons" transform="translate(-906.000000, -216.000000)" fill="#404040" fill-rule="nonzero">
            <g id="marketing_1_" transform="translate(902.000000, 215.000000)">
                <path d="M50.0187891,94.8238994 C46.2484342,88.4402516 43.8810021,84.1698113 41.2066806,75.4528302 C40.6367432,72.3710692 40.0229645,69.3773585 39.7160752,67 C39.1461378,67.3081761 38.2254697,67.4842767 37.348643,67.4842767 L36.6471816,67.4842767 C36.954071,69.9937107 37.348643,72.9433962 37.9624217,76.3333333 C40.8997912,85.3584906 43.3110647,89.9371069 47.0814196,96.4528302 C49.7557411,101.031447 49.7557411,104.289308 49.7557411,104.289308 C49.7557411,105.610063 49.1858038,105.610063 48.5720251,105.610063 L29.0187891,105.610063 C27.8350731,105.610063 26.3444676,104.597484 26.0375783,103.540881 L14.5511482,67.4842767 L11,67.4842767 L11,67.4842767 L22.7933194,104.597484 C23.6701461,107.106918 26.3444676,109 29.0187891,109 L48.5720251,109 C51.2463466,109 53,107.283019 53,104.421384 C53,104.113208 53,100.327044 50.0187891,94.8238994 Z" id="Path"></path>
                <path d="M95.5450558,1.03664111 C94.9728992,0.860871282 94.0926582,1.34423831 93.7405619,1.91549025 C89.3393573,10.7479241 59.1911057,24.194316 38.7695164,24.194316 L12.2742647,24.194316 C7.87306005,24.194316 4,28.0612522 4,32.6312677 L4,52.4053734 C4,56.9753889 7.87306005,60.6665553 12.2742647,60.6665553 L38.7695164,60.6665553 C59.1911057,60.6665553 89.3393573,74.2447745 93.7405619,82.9893235 C94.0926582,83.6045179 94.7088269,84 95.2809835,84 C95.5010437,84 95.5010437,83.8681726 95.5010437,83.8681726 C96.4693087,83.6924028 96.9974533,83.1211509 96.9974533,82.1983593 L96.9974533,2.61856956 C97.0414653,1.91549025 96.5133208,1.34423831 95.5450558,1.03664111 Z M7.65299982,52.4053734 L7.65299982,32.6312677 C7.65299982,29.8189505 9.67755394,27.5778852 12.3622887,27.5778852 L37.5371791,27.5778852 L37.5371791,57.4587559 L12.3622887,57.4587559 C9.67755394,57.4587559 7.65299982,55.1737482 7.65299982,52.4053734 Z M93.5205016,77.5404588 C84.0138997,68.0928306 58.3108648,58.0300079 40.5740103,57.4587559 L40.5740103,27.4460578 C58.3108648,26.8308634 84.0138997,16.8119832 93.5205016,7.4961823 L93.5205016,77.5404588 Z" id="Shape"></path>
                <path d="M94.5925926,61 L94,57.7635468 C101.019943,56.2561576 106.262108,50.137931 106.262108,43.044335 C106.262108,35.862069 101.019943,29.6108374 94,28.2364532 L94.5925926,25 C103.481481,26.6403941 110,34.2216749 110,43.044335 C110,51.6453202 103.481481,59.182266 94.5925926,61 Z" id="Path"></path>
                <g id="Group" transform="translate(25.000000, 71.000000)">
                    <path d="M15.615,5.21142857 C15.615,4.29714286 15.03,3.52 14.085,3.52 L4.005,3.52 C3.105,3.52 2.475,4.25142857 2.475,5.21142857 C2.475,6.30857143 3.06,7.04 4.005,7.04 L14.085,7.04 C15.03,7.04 15.615,6.30857143 15.615,5.21142857 Z" id="Path"></path>
                    <path d="M19.26,15.6342857 C19.26,14.7657143 18.315,13.9885714 17.415,13.9885714 L7.245,13.9885714 C6.3,13.9885714 5.715,14.8114286 5.715,15.6342857 C5.715,16.5485714 6.3,17.3714286 7.245,17.3714286 L17.415,17.3714286 C18.36,17.3714286 19.26,16.5485714 19.26,15.6342857 Z" id="Path"></path>
                    <path d="M24.075,24.2742857 L10.935,24.2742857 C9.72,24.2742857 9.09,25.0057143 9.09,25.92 C9.09,26.8342857 9.675,27.6114286 10.935,27.6114286 L24.075,27.6114286 C25.29,27.6114286 25.92,26.88 25.92,25.92 C25.92,25.0514286 25.29,24.2742857 24.075,24.2742857 Z" id="Path"></path>
                </g>
            </g>
        </g>
    </g>
</svg>