<?xml version="1.0" encoding="utf-8"?>
<!-- Generator: Adobe Illustrator 23.0.2, SVG Export Plug-In . SVG Version: 6.00 Build 0)  -->
<svg version="1.1" id="Layer_1" xmlns="http://www.w3.org/2000/svg" xmlns:xlink="http://www.w3.org/1999/xlink" x="0px" y="0px"
	 viewBox="0 0 512 512" style="enable-background:new 0 0 512 512;" xml:space="preserve">
<style type="text/css">
	.st0{fill:#A0A0A0;}
</style>
<path id="Shape" class="st0" d="M0,512h512V106.6H0V512z M352,160h106.7v170.7H352V160z M202.7,160h106.7v170.7H202.7V160z
	 M185.9,421.9c2.8-15.4,20.7-27.2,84.9-27.2c70.7,0,170.7,14.3,170.7,32c0,17.7-100,32-170.7,32c-67.4,0-83.8-13-85.2-29.6
	c-0.4,2.6-1,5.1-2.1,7.5l-0.2,0.4c-4.5,9.9-14.1,16.4-24.8,18.7c-19.9,4.4-55.8,4.5-81.8-39.8c-0.5-0.9,0.3-2,1.2-1.6
	c7.5,2.6,28.7,7.7,50-8.7c0,0,25.5-19.7,47.1-3.7C181.6,406.7,185.3,414.1,185.9,421.9L185.9,421.9z M53.3,160H160v170.7H53.3V160z"
	/>
<path d="M0,0v85.3h512V0H0z M320,53.3H53.3V32H320V53.3z M384,53.3h-21.3V32H384V53.3z M426.7,53.3h-21.3V32h21.3V53.3z M469.3,53.3
	H448V32h21.3V53.3z"/>
</svg>
