<?xml version="1.0" encoding="utf-8"?>
<!-- Generator: Adobe Illustrator 23.0.2, SVG Export Plug-In . SVG Version: 6.00 Build 0)  -->
<svg version="1.1" id="Layer_1" xmlns="http://www.w3.org/2000/svg" xmlns:xlink="http://www.w3.org/1999/xlink" x="0px" y="0px"
	 viewBox="0 0 512 512" style="enable-background:new 0 0 512 512;" xml:space="preserve">
<style type="text/css">
	.st0{fill:#A0A0A0;}
</style>
<path id="Shape" d="M0,0v85.3h512V0H0z M64,53.3H42.7V32H64V53.3z M106.7,53.3H85.3V32h21.3L106.7,53.3L106.7,53.3z M149.3,53.3H128
	V32h21.3V53.3z M458.7,53.3h-256V32h256V53.3z"/>
<path class="st0" d="M0,512h512V106.6H0V512z M42.7,448h42.7v-70.3l-27,27l-15.1-15.1L96,336.9l52.8,52.8l-15.1,15.1l-27-27V448H192
	V313.7l-27,27l-15.1-15.1l52.8-52.8l52.8,52.8l-15.1,15.1l-27-27V448h85.3V249.7l-27,27l-15.1-15.1l52.8-52.8l52.8,52.8L347,276.8
	l-27-27V448h85.3V196.4l-27,27l-15.1-15.1l52.8-52.8l52.8,52.8l-15.1,15.1l-27-27V448h42.7v21.3H42.7V448z"/>
</svg>
