<?xml version="1.0" encoding="UTF-8"?>
<svg width="107px" height="107px" viewBox="0 0 107 107" version="1.1" xmlns="http://www.w3.org/2000/svg" xmlns:xlink="http://www.w3.org/1999/xlink">
    <!-- Generator: Sketch 58 (84663) - https://sketch.com -->
    <title>web_design_1_</title>
    <desc>Created with Sketch.</desc>
    <g id="Page-1" stroke="none" stroke-width="1" fill="none" fill-rule="evenodd">
        <g id="Icons" transform="translate(-560.000000, -43.000000)" fill="#404040" fill-rule="nonzero">
            <g id="web_design_1_" transform="translate(558.000000, 39.000000)">
                <path d="M108.661803,94.6752922 C108.008645,91.0918197 105.962082,88.0834725 102.826922,86.1811352 L90.808809,78.3063439 L90.808809,78.3063439 L60.1974555,58.3096828 C60.02328,58.1769616 59.5878411,58 59.2830339,58 L37.7288092,58 C37.1627386,58 36.5531242,58.3096828 36.248317,58.884808 C35.9435098,59.3714524 35.9435098,59.9465776 36.1176853,60.3889816 L45.1748141,80.3414023 C45.1748141,80.4741235 45.1748141,80.4741235 45.1748141,80.4741235 C45.3054458,80.7838063 45.4796213,80.9607679 45.7844285,81.0492487 L45.7844285,81.0492487 L79.6180297,103.213689 L79.6180297,103.213689 L83.8417869,105.912354 L83.8417869,105.912354 L88.3703513,108.920701 C90.6346334,110.424875 93.0730912,111 95.5550928,111 C99.9094817,111 104.220327,108.920701 106.83296,104.894825 C108.879523,101.797997 109.445593,98.2587646 108.661803,94.6752922 Z M53.6658723,71.9799666 L84.7562085,92.2420701 L80.1405564,99.5417362 L49.1373079,79.1469115 L53.6658723,71.9799666 Z M104.133239,102.992487 C101.085167,107.770451 94.9454784,109.274624 90.2427385,106.177796 L87.1946663,104.186978 L95.3809173,91.0918197 C95.9469878,90.3839733 95.6857245,89.3222037 94.9890223,88.8797997 C94.2052323,88.3046745 93.2037229,88.5701169 92.6376523,89.3222037 L84.4514013,102.417362 L82.9709091,101.399833 L91.1571601,88.3046745 C91.6361429,87.5083472 91.4184234,86.5350584 90.7217212,86.048414 C89.9379312,85.4732888 88.9364218,85.7387312 88.3703513,86.5350584 L86.4108763,89.6318865 L55.4076278,69.2370618 L57.280015,66.2287145 C57.7154539,65.5208681 57.5848222,64.4590985 56.7139445,63.8397329 C56.0172423,63.3973289 54.9286451,63.7070117 54.5367501,64.4590985 L51.7063973,68.8388982 C51.7063973,68.9716194 51.7063973,68.9716194 51.7063973,68.9716194 L51.7063973,68.9716194 L47.0472013,76.2712855 L41.6042152,64.1936561 L41.6042152,64.1936561 L43.2153391,61.5834725 L58.8911389,61.5834725 L92.3328451,83.3055092 C92.5070206,83.4824708 92.5070206,83.4824708 92.5070206,83.4824708 L101.085167,89.1010017 C103.436537,90.6051753 104.829941,92.8614357 105.483099,95.5158598 C106.092714,98.081803 105.700819,100.736227 104.133239,102.992487 Z" id="Shape"></path>
                <g id="Group">
                    <path d="M15.4,12.7278261 C13.64,12.7278261 12.144,14.2356522 12.144,16.1869565 C12.144,17.9608696 13.64,19.4686957 15.4,19.4686957 C17.336,19.4686957 18.788,17.9608696 18.788,16.1869565 C18.788,14.2356522 17.336,12.7278261 15.4,12.7278261 Z" id="Path"></path>
                    <path d="M27.104,12.7278261 C25.3,12.7278261 23.848,14.2356522 23.848,16.1869565 C23.848,17.9608696 25.344,19.4686957 27.104,19.4686957 C28.82,19.4686957 30.316,17.9608696 30.316,16.1869565 C30.316,14.2356522 28.864,12.7278261 27.104,12.7278261 Z" id="Path"></path>
                    <path d="M38.764,12.7278261 C36.872,12.7278261 35.376,14.2356522 35.376,16.1869565 C35.376,17.9608696 36.872,19.4686957 38.764,19.4686957 C40.568,19.4686957 42.02,17.9608696 42.02,16.1869565 C42.064,14.2356522 40.568,12.7278261 38.764,12.7278261 Z" id="Path"></path>
                    <path d="M100.276,4.39043478 L10.516,4.39043478 C5.94,4.39043478 2.2,8.11565217 2.2,12.7278261 L2.2,24.5243478 L2.2,27.806087 L2.2,91.533913 C2.2,96.146087 5.94,99.8713043 10.516,99.8713043 L63.8,99.8713043 L58.652,96.4565217 L10.56,96.4565217 C7.7,96.4565217 5.5,94.2391304 5.5,91.533913 L5.5,27.8504348 L105.292,27.8504348 L105.292,82.4426087 C106.48,83.3295652 107.536,84.4382609 108.548,85.4582609 L108.548,27.8504348 L108.548,24.5686957 L108.548,12.7721739 C108.548,8.11565217 104.852,4.39043478 100.276,4.39043478 Z M105.248,24.5243478 L5.456,24.5243478 L5.456,12.7278261 C5.456,10.1113043 7.656,7.67217391 10.516,7.67217391 L100.276,7.67217391 C103.048,7.67217391 105.292,10.0669565 105.292,12.7278261 L105.292,24.5243478 L105.248,24.5243478 Z" id="Shape"></path>
                    <path d="M12.144,49.5808696 L98.604,49.5808696 C99.44,49.5808696 100.276,48.8713043 100.276,47.9843478 L100.276,34.5469565 C100.276,33.66 99.44,32.9504348 98.604,32.9504348 L12.144,32.9504348 C11.22,32.9504348 10.516,33.66 10.516,34.5469565 L10.516,47.9843478 C10.516,48.8713043 11.22,49.5808696 12.144,49.5808696 Z M13.816,36.1878261 L97.02,36.1878261 L97.02,46.3878261 L13.816,46.3878261 L13.816,36.1878261 Z" id="Shape"></path>
                    <path d="M12.144,91.5782609 L25.476,91.5782609 C26.356,91.5782609 27.148,90.8686957 27.148,89.8043478 L27.148,59.6478261 C27.148,58.7608696 26.4,58.0069565 25.476,58.0069565 L12.144,58.0069565 C11.22,58.0069565 10.516,58.7165217 10.516,59.6478261 L10.516,89.8043478 C10.516,90.8243478 11.22,91.5782609 12.144,91.5782609 Z M13.816,61.4217391 L23.848,61.4217391 L23.848,88.1634783 L13.816,88.1634783 L13.816,61.4217391 Z" id="Shape"></path>
                </g>
            </g>
        </g>
    </g>
</svg>